<?xml version="1.0" encoding="UTF-8" standalone="no"?><!DOCTYPE svg PUBLIC "-//W3C//DTD SVG 1.1//EN" "http://www.w3.org/Graphics/SVG/1.1/DTD/svg11.dtd"><svg width="100%" height="100%" viewBox="0 0 1024 1024" version="1.1" xmlns="http://www.w3.org/2000/svg" xmlns:xlink="http://www.w3.org/1999/xlink" xml:space="preserve" xmlns:serif="http://www.serif.com/" style="fill-rule:evenodd;clip-rule:evenodd;stroke-linejoin:round;stroke-miterlimit:2;"><path d="M168.132,912.717l-0.172,-3.61l25.784,-30.426c1.261,-0.114 2.693,-0.057 4.298,0.172l4.469,0.688l1.547,-0.86c-0,-0.916 0.573,-1.375 1.719,-1.375c0.458,0 0.974,0.172 1.547,0.516c-2.98,4.813 -7.449,12.033 -13.408,21.659c-5.042,8.48 -8.423,16.215 -10.142,23.206l3.094,1.031c7.793,-2.75 14.611,-9.397 20.456,-19.94c7.678,-13.751 12.949,-22.06 15.814,-24.925c0.688,0.115 1.662,0.172 2.923,0.172l4.641,0c1.146,0 2.464,-0.745 3.953,-2.234l1.719,1.031l-18.221,25.269c-9.397,13.293 -14.095,21.429 -14.095,24.409c2.636,-1.261 5.902,-3.324 9.798,-6.188c5.501,-4.126 8.709,-6.475 9.626,-7.048c-1.948,4.355 -5.157,8.022 -9.626,11.001c-9.168,5.959 -14.497,11.002 -15.986,15.127c-8.595,23.492 -19.425,35.239 -32.489,35.239c-3.667,-0 -6.875,-1.146 -9.626,-3.438c-3.094,-2.407 -4.641,-5.386 -4.641,-8.939c-0,-6.761 3.782,-12.491 11.345,-17.189c1.261,-0.803 8.251,-4.069 20.971,-9.798c7.678,-3.438 11.517,-6.934 11.517,-10.486l-0.343,-1.547c-3.553,1.719 -5.845,2.75 -6.876,3.094c-2.751,1.031 -5.214,1.547 -7.392,1.547c-5.157,-0 -7.735,-3.037 -7.735,-9.111c-0,-5.729 0.802,-9.855 2.407,-12.376l-2.751,3.438c-1.031,0.917 -2.406,1.547 -4.125,1.891Zm733.651,-0l-0.172,-3.61l25.785,-30.426c1.26,-0.114 2.693,-0.057 4.297,0.172l4.47,0.688l1.547,-0.86c-0,-0.916 0.573,-1.375 1.719,-1.375c0.458,0 0.974,0.172 1.547,0.516c-2.98,4.813 -7.449,12.033 -13.408,21.659c-5.043,8.48 -8.423,16.215 -10.142,23.206l3.094,1.031c7.793,-2.75 14.611,-9.397 20.456,-19.94c7.678,-13.751 12.949,-22.06 15.814,-24.925c0.688,0.115 1.662,0.172 2.922,0.172l4.641,0c1.146,0 2.464,-0.745 3.954,-2.234l1.719,1.031l-18.221,25.269c-9.397,13.293 -14.095,21.429 -14.095,24.409c2.635,-1.261 5.901,-3.324 9.798,-6.188c5.5,-4.126 8.709,-6.475 9.626,-7.048c-1.948,4.355 -5.157,8.022 -9.626,11.001c-9.168,5.959 -14.497,11.002 -15.987,15.127c-8.594,23.492 -19.424,35.239 -32.488,35.239c-3.667,-0 -6.876,-1.146 -9.626,-3.438c-3.094,-2.407 -4.641,-5.386 -4.641,-8.939c-0,-6.761 3.781,-12.491 11.345,-17.189c1.26,-0.803 8.251,-4.069 20.971,-9.798c7.678,-3.438 11.517,-6.934 11.517,-10.486l-0.344,-1.547c-3.552,1.719 -5.844,2.75 -6.875,3.094c-2.751,1.031 -5.215,1.547 -7.392,1.547c-5.157,-0 -7.735,-3.037 -7.735,-9.111c-0,-5.729 0.802,-9.855 2.406,-12.376l-2.75,3.438c-1.031,0.917 -2.407,1.547 -4.126,1.891Zm-744.653,53.631l0.86,0c6.761,0 13.236,-4.412 19.424,-13.236c1.834,-2.75 4.584,-6.818 8.251,-12.204c-20.513,5.73 -30.769,12.835 -30.769,21.315c-0,1.604 0.745,2.979 2.234,4.125Zm733.652,0l0.86,0c6.761,0 13.236,-4.412 19.424,-13.236c1.833,-2.75 4.584,-6.818 8.251,-12.204c-20.513,5.73 -30.77,12.835 -30.77,21.315c0,1.604 0.745,2.979 2.235,4.125Zm-313.538,-84.916c1.948,-0 3.581,0.888 4.899,2.664c1.318,1.776 1.977,3.696 1.977,5.759c-0,2.75 -1.605,6.761 -4.813,12.032l-14.096,23.378c0.917,0.688 1.948,1.032 3.094,1.032c1.376,-1.146 2.693,-2.292 3.954,-3.438c1.261,-1.146 2.292,-2.579 3.094,-4.298l0.516,4.641c-0,1.376 -1.146,2.865 -3.438,4.47c-2.292,1.604 -4.183,2.406 -5.673,2.406c-3.781,0 -6.446,-0.716 -7.993,-2.148c-1.547,-1.433 -2.32,-3.983 -2.32,-7.65c-0,-4.698 3.208,-11.46 9.626,-20.284c1.719,-2.406 4.354,-5.959 7.907,-10.657c-0.573,-1.031 -1.433,-1.547 -2.579,-1.547c-5.729,-0 -13.35,7.85 -22.862,23.55c-2.865,4.927 -6.188,10.543 -9.97,16.845c-4.927,0 -8.079,0.401 -9.454,1.204c-1.375,0.802 -3.323,3.38 -5.844,7.735c0.687,-3.438 2.635,-9.225 5.844,-17.362l-5.672,5.157l-0.172,-4.469c7.105,-8.136 11.86,-13.809 14.267,-17.018c5.386,-7.105 9.11,-13.465 11.173,-19.08c1.834,-0.115 4.498,-0.373 7.993,-0.774c3.496,-0.401 5.587,-1.747 6.275,-4.039l1.89,0.859l-5.844,10.142c3.896,-2.636 6.818,-4.526 8.767,-5.672c3.781,-2.292 6.933,-3.438 9.454,-3.438Zm174.99,-0c1.948,-0 3.581,0.888 4.899,2.664c1.318,1.776 1.977,3.696 1.977,5.759c-0,2.75 -1.605,6.761 -4.813,12.032l-14.096,23.378c0.917,0.688 1.948,1.032 3.094,1.032c1.376,-1.146 2.693,-2.292 3.954,-3.438c1.261,-1.146 2.292,-2.579 3.094,-4.298l0.516,4.641c-0,1.376 -1.146,2.865 -3.438,4.47c-2.292,1.604 -4.183,2.406 -5.673,2.406c-3.781,0 -6.446,-0.716 -7.993,-2.148c-1.547,-1.433 -2.32,-3.983 -2.32,-7.65c-0,-4.698 3.208,-11.46 9.626,-20.284c1.719,-2.406 4.354,-5.959 7.907,-10.657c-0.573,-1.031 -1.433,-1.547 -2.579,-1.547c-5.729,-0 -13.35,7.85 -22.862,23.55c-2.865,4.927 -6.188,10.543 -9.97,16.845c-4.927,0 -8.079,0.401 -9.454,1.204c-1.375,0.802 -3.323,3.38 -5.844,7.735c0.687,-3.438 2.635,-9.225 5.844,-17.362l-5.672,5.157l-0.172,-4.469c7.105,-8.136 11.86,-13.809 14.267,-17.018c5.386,-7.105 9.11,-13.465 11.173,-19.08c1.834,-0.115 4.498,-0.373 7.993,-0.774c3.496,-0.401 5.587,-1.747 6.275,-4.039l1.89,0.859l-5.844,10.142c3.896,-2.636 6.819,-4.526 8.767,-5.672c3.781,-2.292 6.933,-3.438 9.454,-3.438Zm-659.908,35.41l-2.235,-2.234c7.22,-7.678 14.267,-17.878 21.143,-30.598l7.907,0.172c1.949,0 3.266,-0.917 3.954,-2.75l1.891,0.859c-1.605,2.98 -4.298,7.965 -8.079,14.955c-5.845,10.658 -9.569,19.367 -11.174,26.128l1.891,1.204c1.146,-0.459 2.006,-0.974 2.579,-1.547l3.781,1.89c-3.094,2.865 -6.474,4.298 -10.141,4.298c-2.522,-0 -4.613,-1.003 -6.275,-3.008c-1.661,-2.006 -2.492,-4.269 -2.492,-6.79c-0,-0.688 0.315,-1.719 0.945,-3.094c0.631,-1.376 0.946,-2.12 0.946,-2.235l-0.172,-2.063l-4.469,4.813Zm-38.505,2.063c2.521,-5.271 6.532,-11.975 12.033,-20.112c7.448,-10.887 11.86,-17.476 13.236,-19.768c5.729,-9.511 9.511,-15.7 11.345,-18.565c9.168,-13.866 18.966,-24.352 29.394,-31.457c5.959,0.688 8.939,3.152 8.939,7.392c-0,5.386 -4.241,13.064 -12.721,23.034c-5.386,6.074 -13.522,15.241 -24.409,27.503c-8.939,10.085 -13.694,17.075 -14.267,20.972c-1.261,4.125 -2.464,8.193 -3.61,12.204c0.458,1.49 0.745,2.579 0.859,3.266c2.751,0 5.386,-1.604 7.908,-4.813c-0,2.98 -0.946,5.415 -2.837,7.306c-1.891,1.891 -4.326,2.836 -7.305,2.836c-6.189,0 -9.283,-4.297 -9.283,-12.892l0,-3.266c0,-1.032 0.058,-2.063 0.172,-3.094l-9.454,9.454Zm286.207,0c2.521,-5.271 6.532,-11.975 12.032,-20.112c7.449,-10.887 11.861,-17.476 13.236,-19.768c5.73,-9.511 9.512,-15.7 11.345,-18.565c9.168,-13.866 18.966,-24.352 29.395,-31.457c5.959,0.688 8.938,3.152 8.938,7.392c0,5.386 -4.24,13.064 -12.72,23.034c-5.386,6.074 -13.523,15.241 -24.409,27.503c-8.939,10.085 -13.695,17.075 -14.268,20.972c-1.26,4.125 -2.464,8.193 -3.609,12.204c0.458,1.49 0.744,2.579 0.859,3.266c2.75,0 5.386,-1.604 7.907,-4.813c0,2.98 -0.945,5.415 -2.836,7.306c-1.891,1.891 -4.326,2.836 -7.306,2.836c-6.188,0 -9.282,-4.297 -9.282,-12.892l-0,-3.266c-0,-1.032 0.057,-2.063 0.172,-3.094l-9.454,9.454Zm-216.245,0c2.521,-5.271 6.532,-11.975 12.032,-20.112c7.449,-10.887 11.861,-17.476 13.236,-19.768c5.73,-9.511 9.512,-15.7 11.345,-18.565c9.168,-13.866 18.966,-24.352 29.395,-31.457c5.959,0.688 8.938,3.152 8.938,7.392c0,5.386 -4.24,13.064 -12.72,23.034c-5.386,6.074 -13.523,15.241 -24.409,27.503c-8.939,10.085 -13.695,17.075 -14.268,20.972c-1.26,4.125 -2.464,8.193 -3.61,12.204c0.459,1.49 0.745,2.579 0.86,3.266c2.75,0 5.386,-1.604 7.907,-4.813c0,2.98 -0.945,5.415 -2.836,7.306c-1.891,1.891 -4.326,2.836 -7.306,2.836c-6.188,0 -9.282,-4.297 -9.282,-12.892l-0,-3.266c-0,-1.032 0.057,-2.063 0.172,-3.094l-9.454,9.454Zm539.065,0c0,3.323 2.063,4.985 6.188,4.985c1.948,-0 5.215,-0.859 9.798,-2.578c2.178,-0.803 5.444,-2.063 9.798,-3.782c-11.688,7.563 -20.111,11.23 -25.268,11.001l-3.954,-0.172c-4.584,-3.552 -7.621,-8.251 -9.11,-14.095l-9.97,8.767c4.125,-6.876 10.6,-16.961 19.424,-30.254c8.595,-11.918 18.164,-17.877 28.707,-17.877c3.781,-0 6.99,1.26 9.626,3.781l0.344,3.954c0.687,7.793 -3.152,13.981 -11.517,18.565c-10.085,3.781 -17.477,6.646 -22.175,8.595c-1.261,4.583 -1.891,7.62 -1.891,9.11Zm232.747,-44.865c2.98,0 4.469,1.891 4.469,5.673c0,5.271 -1.89,11.116 -5.672,17.533l-12.549,21.315c0,2.865 0.803,5.272 2.407,7.22c-0.344,1.719 -2.75,2.578 -7.22,2.578c-1.948,0 -3.552,-1.318 -4.813,-3.953c-1.146,-2.178 -1.719,-4.355 -1.719,-6.532c0,-3.553 2.149,-8.939 6.446,-16.159c4.298,-7.219 6.447,-12.319 6.447,-15.298c-3.897,1.26 -7.507,3.724 -10.83,7.391c-0.917,0.917 -5.214,7.163 -12.892,18.737c-0.802,-0.917 -1.375,-2.063 -1.719,-3.438c0.802,-2.063 3.896,-6.36 9.282,-12.892c1.146,-4.126 2.607,-9.483 4.384,-16.073c1.776,-6.589 5.357,-9.884 10.743,-9.884c0.573,1.146 0.86,2.235 0.86,3.266c-0,0.917 -0.23,2.321 -0.688,4.212c-0.458,1.891 -0.688,3.237 -0.688,4.04c4.814,-5.157 9.397,-7.736 13.752,-7.736Zm-299.099,54.319c-7.334,0 -11.001,-2.75 -11.001,-8.251c-0,-0.802 0.286,-2.922 0.859,-6.36c0.23,-1.375 0.344,-2.693 0.344,-3.953l-0.172,-1.204l-7.563,8.079l-0.172,-6.188c6.647,-7.678 11.231,-13.064 13.752,-16.158c4.24,-5.386 8.423,-11.116 12.548,-17.19c2.521,1.032 4.87,1.834 7.048,2.407c0.114,-0.802 0.63,-1.49 1.547,-2.063c1.375,-0.917 2.235,-1.547 2.578,-1.891l1.891,0.688l-21.831,45.724c1.605,1.605 3.381,2.407 5.329,2.407c1.834,-0 5.415,-2.521 10.744,-7.564c5.328,-5.042 7.993,-8.423 7.993,-10.142c-0,-0.916 -1.261,-3.781 -3.782,-8.594c-1.26,-2.407 -1.891,-4.47 -1.891,-6.189c0,-2.979 1.318,-6.417 3.954,-10.313c2.636,-3.897 5.329,-5.845 8.079,-5.845c2.865,0 5.558,1.461 8.079,4.383c2.521,2.923 3.782,5.874 3.782,8.853c-0,1.719 -1.146,5.615 -3.438,11.689c0.458,0.229 1.146,0.344 2.063,0.344c0.802,-0 1.776,-0.115 2.922,-0.344l0.172,2.922c-0.917,1.375 -2.464,1.948 -4.641,1.719c-7.22,5.959 -13.179,10.83 -17.878,14.611c-6.99,5.616 -14.095,8.423 -21.315,8.423Zm218.136,-62.914l0.172,4.47c-2.865,0.343 -7.964,0.515 -15.299,0.515c-7.219,10.543 -12.204,18.221 -14.955,23.034c-4.927,8.481 -8.824,16.846 -11.689,25.097c0.917,2.063 2.35,3.094 4.298,3.094c2.063,0 4.469,-1.031 7.219,-3.094c1.376,-0.917 3.496,-2.807 6.361,-5.672c-1.605,4.584 -4.384,8.308 -8.337,11.173c-3.954,2.865 -8.337,4.297 -13.15,4.297c-2.751,0 -4.985,-1.432 -6.704,-4.297c-1.605,-2.521 -2.407,-5.214 -2.407,-8.079c0,-4.699 1.261,-10.199 3.782,-16.502c0.687,-1.605 5.271,-10.429 13.752,-26.472c-1.032,-1.834 -4.183,-2.751 -9.455,-2.751l-2.922,0l0,-2.062l6.188,0.172c9.168,0.229 18.107,-4.355 26.816,-13.752c2.292,-3.094 8.709,-11.574 19.252,-25.441l3.61,-0.172l-19.596,36.27c1.604,0.23 3.209,0.344 4.813,0.344l4.126,0c1.375,0 2.75,-0.057 4.125,-0.172Zm-543.019,30.77c-1.948,-0 -3.151,-0.802 -3.61,-2.407c-0.229,-0.573 -0.344,-2.234 -0.344,-4.985c0,-2.177 0.688,-3.266 2.063,-3.266c0.688,0 1.719,0.344 3.094,1.032c1.375,0.687 2.35,1.031 2.923,1.031c0.458,-0.115 1.031,-0.401 1.718,-0.86c0.344,-1.489 0.688,-3.036 1.032,-4.641c-0.344,-0.458 -0.573,-0.745 -0.688,-0.859c-0.573,-0.688 -0.974,-1.089 -1.203,-1.203c-5.844,1.146 -12.033,6.245 -18.565,15.298c-7.105,9.856 -10.428,17.534 -9.97,23.034l0.344,3.954c2.063,1.146 4.126,1.719 6.188,1.719c2.636,-0 5.673,-0.745 9.111,-2.235c1.604,-0.687 4.412,-2.234 8.423,-4.641l1.203,1.547c-4.24,3.094 -7.678,5.272 -10.314,6.532c-4.24,2.063 -8.193,3.094 -11.861,3.094c-9.511,0 -14.267,-4.755 -14.267,-14.267c0,-7.563 4.842,-15.786 14.525,-24.667c9.684,-8.881 18.307,-13.322 25.871,-13.322c4.813,-0 7.219,2.693 7.219,8.079c0,4.813 -1.948,8.709 -5.844,11.689c-0.459,-0.115 -1.089,-0.172 -1.891,-0.172c-1.031,0 -2.75,0.172 -5.157,0.516Zm533.737,14.439l-7.22,7.907l-2.578,-2.578c8.136,-10.314 14.897,-18.565 20.283,-24.753c9.512,-10.887 17.935,-16.33 25.269,-16.33c4.011,-0 7.392,1.547 10.142,4.641c2.75,3.094 4.125,6.646 4.125,10.657c0,1.261 -0.257,3.009 -0.773,5.243c-0.516,2.235 -0.774,3.868 -0.774,4.899c0,1.605 1.204,2.751 3.61,3.438c-7.563,6.991 -13.522,12.205 -17.877,15.643c-7.334,5.959 -14.382,8.938 -21.143,8.938c-4.469,0 -7.735,-1.948 -9.798,-5.844c-1.146,-2.178 -2.235,-6.131 -3.266,-11.861Zm-484.919,13.064c1.376,0.458 2.407,0.688 3.095,0.688c1.948,-0 4.412,-1.318 7.391,-3.954c2.063,-2.063 4.126,-4.125 6.188,-6.188c-1.26,3.209 -3.151,6.188 -5.672,8.938c-2.98,3.438 -5.845,5.157 -8.595,5.157c-6.188,0 -10.772,-2.807 -13.752,-8.423c-1.948,1.834 -3.839,3.668 -5.672,5.501c-2.292,1.834 -4.756,2.75 -7.392,2.75c-2.979,0 -5.529,-1.26 -7.649,-3.781c-2.12,-2.521 -3.18,-5.272 -3.18,-8.251c-0,-7.908 3.896,-16.044 11.689,-24.41c7.792,-8.365 15.642,-12.548 23.549,-12.548c2.636,0 4.756,0.802 6.361,2.407c1.031,-0.688 2.234,-1.032 3.609,-1.032c0.573,0 2.178,0.287 4.813,0.86c1.032,0.229 2.006,0.344 2.923,0.344c1.719,-0 2.979,-1.204 3.781,-3.61l1.719,0.687c-1.948,5.501 -4.526,11.002 -7.735,16.502c-3.438,5.959 -8.652,14.955 -15.642,26.988l0.171,1.375Zm516.548,-21.143c1.489,-1.375 2.979,-4.469 4.469,-9.282c1.49,-4.47 2.235,-7.908 2.235,-10.314c-0,-2.063 -0.688,-3.152 -2.063,-3.266c-15.929,13.751 -23.894,28.477 -23.894,44.177c2.292,-0 5.73,-1.834 10.314,-5.501c4.584,-3.667 6.876,-6.646 6.876,-8.938c-0,-0.344 -1.232,-1.92 -3.696,-4.727c-2.464,-2.808 -3.696,-5.243 -3.696,-7.306c0,-1.261 1.261,-3.037 3.782,-5.329c1.375,-1.26 2.464,-1.891 3.266,-1.891c2.75,0 4.126,1.662 4.126,4.985c-0,3.209 -1.089,4.985 -3.266,5.329l1.547,2.063Zm-540.097,16.846c-0,1.719 0.401,3.151 1.203,4.297c3.438,-1.031 6.36,-3.552 8.767,-7.563c2.062,-3.438 5.214,-8.595 9.454,-15.471c3.896,-6.532 6.36,-11.861 7.391,-15.986l-1.89,-0.344c-3.553,-0 -8.595,4.842 -15.127,14.525c-6.532,9.684 -9.798,16.531 -9.798,20.542Zm374.217,-18.909c2.865,-0.917 6.246,-3.581 10.142,-7.993c3.896,-4.412 5.844,-7.993 5.844,-10.743l-0.343,-2.923c-2.865,1.605 -5.329,3.839 -7.392,6.704c-1.375,1.834 -4.125,6.819 -8.251,14.955Zm-47.787,-3.266l1.719,-6.532c0.458,-1.948 0.688,-3.438 0.688,-4.469c-0,-1.605 -0.344,-3.094 -1.032,-4.469c-3.323,3.094 -4.985,6.302 -4.985,9.626c0,2.177 0.745,4.412 2.235,6.704c0.114,-0.344 0.573,-0.631 1.375,-0.86Zm255.323,-21.162c-0.153,0.891 -0.459,1.757 -0.917,2.597c-0.344,0.573 -1.089,1.777 -2.235,3.61c0,-3.079 1.051,-5.148 3.152,-6.207c0.076,-0.446 0.114,-0.898 0.114,-1.356l1.204,0.859c-0.478,0.129 -0.917,0.294 -1.318,0.497Zm-786.997,1.738c7.907,-7.334 13.866,-13.694 17.877,-19.081c6.532,-8.709 9.798,-16.559 9.798,-23.549c-5.157,4.698 -10.428,11.345 -15.814,19.94c-5.157,8.021 -9.111,15.585 -11.861,22.69Zm286.207,-0c7.907,-7.334 13.866,-13.694 17.877,-19.081c6.532,-8.709 9.798,-16.559 9.798,-23.549c-5.157,4.698 -10.428,11.345 -15.815,19.94c-5.156,8.021 -9.11,15.585 -11.86,22.69Zm-216.245,-0c7.907,-7.334 13.866,-13.694 17.877,-19.081c6.532,-8.709 9.798,-16.559 9.798,-23.549c-5.157,4.698 -10.428,11.345 -15.815,19.94c-5.156,8.021 -9.11,15.585 -11.86,22.69Zm-33.52,-16.674l4.125,1.719c1.261,0.802 1.891,2.063 1.891,3.782l0.344,2.234c0,1.49 -0.917,3.094 -2.75,4.813c-1.834,1.719 -3.495,2.579 -4.985,2.579c-4.24,-0 -6.36,-1.49 -6.36,-4.469c-0,-1.949 0.83,-3.983 2.492,-6.103c1.662,-2.12 3.409,-3.638 5.243,-4.555Z" style="fill:#7490c1;fill-rule:nonzero;"/><path d="M785.676,724.378c12.481,27.821 26.549,55.069 42.365,81.46c-12.449,-4.16 -30.901,-7.749 -53.735,-10.829l11.37,-70.631Zm-424.005,53.132l-14.323,3.462l-22.516,4.351l-20.992,3.175l12.29,-1.461l8.702,-1.714l11.814,-1.779l10.702,-2.572l7.559,-1.461l6.764,-2.001l9.02,-2.191l26.264,-8.226l-35.284,10.417Zm280.203,-112.805l10.353,1.651c9.814,1.588 18.865,6.193 25.883,13.212c7.019,7.018 11.624,16.069 13.212,25.883l13.307,82.698c-75.299,-5.399 -170.479,-7.241 -259.338,-5.494c66.565,-27.852 133.861,-68.852 196.583,-117.95Zm-425.338,116.838l8.67,2.509c-2.953,-0.762 -5.843,-1.588 -8.67,-2.509Zm-4.827,-1.619c-0.572,-0.191 -1.112,-0.413 -1.683,-0.604c-0.54,-0.19 -1.112,-0.413 -1.652,-0.635l3.335,1.239Zm190.041,-14.514c0.826,-0.286 1.652,-0.572 2.414,-0.857l-4.796,1.715l2.382,-0.858Zm12.068,-4.383c4.796,-1.842 9.655,-3.715 14.482,-5.684l-16.895,6.574l2.413,-0.89Zm24.137,-9.718l-4.828,2.033l14.514,-6.256c-3.208,1.429 -6.447,2.826 -9.686,4.223Zm86.509,-44.271l10.131,-5.97l-4.383,2.636l-5.748,3.334l-13.021,7.686l-4.287,2.287l-5.24,3.017l-16.165,8.447l-7.336,3.938l-2.192,1.08l-2,1.048l-21.723,10.353l23.723,-11.401l9.528,-5.018l21.405,-11.464l17.308,-9.973Zm31.472,-19.658l-16.546,10.734l28.996,-18.769l4.255,-2.89l-16.705,10.925Zm-306.752,3.97c51.956,-130.749 70.725,-271.565 70.725,-393.643c-63.516,31.758 -127.033,95.274 -158.791,158.791c0,-127.033 -31.758,-222.308 -82.19,-290.683c82.19,4.859 209.223,-58.658 251.62,-117.315c25.979,47.986 96.768,82.476 179.911,82.476c83.238,-0 154.059,-34.521 180.005,-82.603c24.581,34.14 77.745,69.9 134.179,92.892c8.098,29.567 3.652,68.852 -13.402,115.124c-10.607,28.773 -25.438,57.641 -43.636,86.065c-21.246,-18.007 -43.922,-33.41 -66.597,-44.747c0,39.729 2.001,81.459 6.447,124.174c-89.685,102.548 -215.099,191.915 -328.539,240.505c-46.875,20.072 -85.652,29.567 -116.997,29.536c-4.446,-0 -8.67,-0.191 -12.735,-0.572Zm349.785,-33.569l-7.59,5.526l7.59,-5.526Zm314.121,-481.391l-0.858,-9.369l1.556,16.801l0.191,8.479l-0.159,-6.225l-0.73,-9.686Z" style="fill:#928cdb;"/><path d="M740.023,427.104l17.34,107.805c2.636,16.402 10.385,31.555 22.135,43.292c11.719,11.738 26.868,19.452 43.255,22.104l107.819,17.348l-107.819,17.347c-16.387,2.653 -31.536,10.366 -43.255,22.104c-11.75,11.738 -19.499,26.89 -22.135,43.293l-17.34,107.805l-17.34,-107.805c-2.636,-16.403 -10.385,-31.555 -22.136,-43.293c-11.719,-11.738 -26.867,-19.451 -43.255,-22.104l-107.819,-17.347l107.819,-17.348c16.388,-2.652 31.536,-10.366 43.255,-22.104c11.751,-11.737 19.5,-26.89 22.136,-43.292l17.34,-107.805Zm135.654,-161.156l11.56,71.87c1.758,10.935 6.924,21.036 14.757,28.862c7.813,7.825 17.912,12.967 28.837,14.735l71.879,11.565l-71.879,11.566c-10.925,1.768 -21.024,6.91 -28.837,14.735c-7.833,7.826 -12.999,17.927 -14.757,28.862l-11.56,71.87l-11.56,-71.87c-1.757,-10.935 -6.923,-21.036 -14.757,-28.862c-7.812,-7.825 -17.911,-12.967 -28.836,-14.735l-71.879,-11.566l71.879,-11.565c10.925,-1.768 21.024,-6.91 28.836,-14.735c7.834,-7.826 13,-17.927 14.757,-28.862l11.56,-71.87Z" style="fill:#ffd337;"/><path d="M588.6,973.684c3.188,0 4.719,-1.311 6.062,-5.153l5.937,-17.033l-4.874,-0l-2.031,6.376c-0.719,2.219 -1.469,5.782 -1.469,5.782l-0.062,-0c-0,-0 -0.625,-3.532 -1.375,-5.782l-2.125,-6.376l-5.156,-0l5.156,13.283c0.594,1.5 0.875,2.781 0.875,3.344c-0.094,1.125 -0.844,1.688 -2.375,1.688c-0.125,-0 -1.531,-0 -1.593,-0.032l-0.25,0l-0,3.841c0.093,0.031 3.124,0.062 3.28,0.062Zm-46.099,0c3.187,0 4.718,-1.311 6.062,-5.153l5.937,-17.033l-4.875,-0l-2.031,6.376c-0.718,2.219 -1.468,5.782 -1.468,5.782l-0.063,-0c0,-0 -0.625,-3.532 -1.375,-5.782l-2.124,-6.376l-5.156,-0l5.156,13.283c0.593,1.5 0.875,2.781 0.875,3.344c-0.094,1.125 -0.844,1.688 -2.375,1.688c-0.125,-0 -1.531,-0 -1.594,-0.032l-0.25,0l0,3.841c0.094,0.031 3.125,0.062 3.281,0.062Zm30.784,-5c5.314,-0 9.375,-2.686 9.375,-7.498c-0,-4.908 -3.842,-6.284 -8.03,-7.222c-3.658,-0.812 -5.66,-1.219 -5.66,-3.032c0,-1.469 1.47,-2.407 3.659,-2.407c2.314,-0 3.752,1.063 4.033,2.876l5.217,-0c-0.344,-4.562 -3.967,-6.935 -9.094,-6.935c-5.126,-0 -9.061,2.185 -9.061,6.997c-0,4.846 3.685,5.971 8.217,7.003c3.377,0.781 5.347,1.219 5.347,3.251c-0,1.907 -1.939,2.72 -4.003,2.72c-3.001,-0 -4.658,-1.126 -4.939,-3.658l-5.372,0c0.156,5.032 4.091,7.905 10.311,7.905Zm35.849,-0.032c4.313,0 7.498,-1.873 7.498,-5.466c0,-4.19 -3.372,-4.971 -6.341,-5.503c-2.283,-0.406 -4.097,-0.594 -4.097,-1.844c-0,-1.063 0.969,-1.689 2.47,-1.689c1.564,0.002 2.502,0.595 2.815,1.782l4.56,-0c-0.437,-2.905 -2.748,-4.903 -7.375,-4.903c-3.907,0 -6.998,1.779 -6.998,5.185c-0,3.877 2.998,4.627 5.966,5.19c2.315,0.438 4.285,0.625 4.285,2.126c-0,1.188 -1.001,1.907 -2.752,1.907c-1.908,0 -3.096,-0.875 -3.377,-2.439l-4.622,0c0.25,3.344 3.154,5.654 7.968,5.654Zm96.261,0c5.283,0 8.749,-3.84 8.749,-8.811c0,-5.003 -3.466,-8.812 -8.749,-8.812c-5.314,0 -8.811,3.809 -8.811,8.812c-0,4.971 3.497,8.811 8.811,8.811Zm-190.836,0c5.283,0 8.75,-3.84 8.75,-8.811c-0,-5.003 -3.467,-8.812 -8.75,-8.812c-5.314,0 -8.811,3.809 -8.811,8.812c-0,4.971 3.497,8.811 8.811,8.811Zm328.415,0c4.314,0 7.499,-1.873 7.499,-5.466c0,-4.19 -3.372,-4.971 -6.341,-5.503c-2.283,-0.406 -4.097,-0.594 -4.097,-1.844c-0,-1.063 0.969,-1.689 2.47,-1.689c1.564,0.002 2.502,0.595 2.815,1.782l4.56,-0c-0.437,-2.905 -2.748,-4.903 -7.375,-4.903c-3.907,0 -6.998,1.779 -6.998,5.185c-0,3.877 2.997,4.627 5.966,5.19c2.315,0.438 4.285,0.625 4.285,2.126c-0,1.188 -1.001,1.907 -2.752,1.907c-1.908,0 -3.096,-0.875 -3.377,-2.439l-4.622,0c0.25,3.344 3.154,5.654 7.967,5.654Zm-377.764,-0.031c4.283,-0 7,-2.248 7.843,-5.186l-4.747,0c-0.532,1.033 -1.501,1.627 -3.034,1.627c-2.376,-0 -3.721,-1.502 -4.033,-4.004l12.126,-0c0.031,-3.279 -0.812,-6.094 -2.686,-7.906c-1.468,-1.343 -3.343,-2.123 -5.719,-2.123c-5.064,0 -8.531,3.809 -8.531,8.811c0,4.972 3.342,8.781 8.781,8.781Zm173.552,-0c4.283,-0 7,-2.248 7.843,-5.186l-4.747,0c-0.532,1.033 -1.501,1.627 -3.033,1.627c-2.377,-0 -3.721,-1.502 -4.034,-4.004l12.126,-0c0.032,-3.279 -0.812,-6.094 -2.685,-7.906c-1.468,-1.343 -3.343,-2.123 -5.72,-2.123c-5.064,0 -8.53,3.809 -8.53,8.811c-0,4.972 3.341,8.781 8.78,8.781Zm146.644,-0.5l4.779,-0l-0,-0.277c-0.438,-0.282 -0.625,-1.001 -0.625,-2.314l-0,-8.535c-0,-2.251 -0.812,-3.968 -2.53,-4.967c-1.155,-0.687 -2.655,-0.999 -4.782,-0.999c-4.939,0 -7.249,2.653 -7.374,5.497l4.529,0c0.125,-1.313 1.032,-2.188 2.908,-2.188c1.689,0 2.471,0.813 2.471,2.001c-0,1.25 -1.22,1.719 -4.191,2.126c-3.625,0.437 -6.529,1.375 -6.529,5.064c-0,3.281 2.404,5.029 5.685,5.029c2.564,0 3.94,-0.936 5.035,-2.466l0.062,0c0.094,0.939 0.313,1.658 0.562,2.029Zm30.379,-0l4.778,-0l0,-0.277c-0.437,-0.282 -0.625,-1.001 -0.625,-2.314l0,-8.535c0,-2.251 -0.812,-3.968 -2.529,-4.967c-1.155,-0.687 -2.655,-0.999 -4.782,-0.999c-4.939,0 -7.25,2.653 -7.375,5.497l4.529,0c0.125,-1.313 1.032,-2.188 2.909,-2.188c1.689,0 2.47,0.813 2.47,2.001c0,1.25 -1.219,1.719 -4.19,2.126c-3.625,0.437 -6.53,1.375 -6.53,5.064c0,3.281 2.405,5.029 5.685,5.029c2.565,0 3.941,-0.936 5.035,-2.466l0.063,0c0.094,0.939 0.312,1.658 0.562,2.029Zm-322.351,-13.502l2.5,0l0,9.318c0,3.372 2.092,4.371 5.184,4.371c1.313,0 2.313,-0.156 2.844,-0.249l0,-3.653l-0.25,-0c-0.312,0.031 -0.812,0.062 -1.125,0.062c-1.156,0 -1.844,-0.344 -1.844,-1.594l0,-8.255l3.251,0l-0,-3.121l-3.251,-0l0,-5.313l-4.809,-0l0,5.313l-2.5,-0l-0,3.121Zm298.286,0l2.5,0l0,9.318c0,3.372 2.093,4.371 5.185,4.371c1.312,0 2.312,-0.156 2.844,-0.249l-0,-3.653l-0.25,-0c-0.313,0.031 -0.813,0.062 -1.125,0.062c-1.157,0 -1.844,-0.344 -1.844,-1.594l-0,-8.255l3.25,0l-0,-3.121l-3.25,-0l-0,-5.313l-4.81,-0l0,5.313l-2.5,-0l0,3.121Zm-174.052,0l2.5,0l-0,9.318c-0,3.372 2.092,4.371 5.184,4.371c1.313,0 2.313,-0.156 2.844,-0.249l0,-3.653l-0.25,-0c-0.312,0.031 -0.812,0.062 -1.125,0.062c-1.156,0 -1.844,-0.344 -1.844,-1.594l0,-8.255l3.251,0l-0,-3.121l-3.251,-0l0,-5.313l-4.809,-0l-0,5.313l-2.5,-0l-0,3.121Zm103.665,-3.121l-4.716,-0l0,16.623l4.903,-0l0,-7.718c0,-3.252 1.75,-4.909 4.407,-4.877c0.344,-0 0.688,0.031 1.031,0.093l0.125,0l0,-4.277c-0.218,-0.094 -0.562,-0.125 -1.031,-0.125c-2.063,-0 -3.563,0.936 -4.626,3.247l-0.093,-0l-0,-2.966Zm-71.943,16.623l4.903,-0l0,-9.47c0,-2.125 1.157,-3.594 2.878,-3.594c1.626,-0 2.439,1.094 2.439,2.906l0,10.158l4.903,-0l0,-9.47c0,-2.125 1.095,-3.594 2.846,-3.594c1.596,-0 2.471,1.094 2.471,2.906l0,10.158l4.872,-0l-0,-10.97c-0,-3.687 -1.905,-6.122 -5.591,-6.122c-2.096,0 -3.91,0.937 -5.285,3.154l-0.062,-0c-0.843,-2.061 -2.374,-3.154 -4.56,-3.154c-2.346,0 -3.941,1.093 -5.004,3.06l-0.094,-0l-0,-2.591l-4.716,-0l0,16.623Zm-204.463,-0l5.28,-0l5.812,-16.623l-4.937,-0l-2.093,6.687c-0.688,2.22 -1.313,5.814 -1.313,5.814l-0.093,0c-0,0 -0.625,-3.594 -1.313,-5.813l-2.031,-6.688l-5.062,-0l5.75,16.623Zm85.57,-16.623l-4.715,-0l-0,16.623l4.902,-0l0,-7.718c0,-3.252 1.751,-4.909 4.407,-4.877c0.344,-0 0.688,0.031 1.032,0.093l0.125,0l-0,-4.277c-0.219,-0.094 -0.563,-0.125 -1.032,-0.125c-2.062,-0 -3.563,0.936 -4.625,3.247l-0.094,-0l0,-2.966Zm297.474,-0l-4.716,-0l0,16.623l4.903,-0l0,-7.718c0,-3.252 1.75,-4.909 4.407,-4.877c0.344,-0 0.687,0.031 1.031,0.093l0.125,0l0,-4.277c-0.218,-0.094 -0.562,-0.125 -1.031,-0.125c-2.063,-0 -3.563,0.936 -4.626,3.247l-0.093,-0l-0,-2.966Zm-65.506,16.623l5.281,-0l5.812,-16.623l-4.937,-0l-2.094,6.687c-0.687,2.22 -1.312,5.814 -1.312,5.814l-0.094,0c0,0 -0.625,-3.594 -1.312,-5.813l-2.031,-6.688l-5.062,-0l5.749,16.623Zm-281.88,-16.623l-4.747,-0l-0,16.623l4.903,-0l-0,-9.376c-0,-2.125 1.282,-3.657 3.19,-3.657c1.814,0 2.783,1.219 2.783,3.032l0,10.001l4.872,-0l-0,-10.939c-0,-3.718 -2.124,-6.153 -5.779,-6.153c-2.314,0 -4.097,0.999 -5.129,2.997l-0.093,0l-0,-2.528Zm-53.757,-0l-4.747,-0l0,16.623l4.903,-0l0,-9.376c0,-2.125 1.283,-3.657 3.19,-3.657c1.814,0 2.784,1.219 2.784,3.032l-0,10.001l4.871,-0l0,-10.939c0,-3.718 -2.123,-6.153 -5.778,-6.153c-2.315,0 -4.097,0.999 -5.129,2.997l-0.094,0l0,-2.528Zm257.535,3.184l2.501,-0l-0,13.439l4.903,-0l-0,-13.439l3.469,-0l-0,-3.184l-3.469,-0l-0,-1.064c-0,-1.878 1,-2.034 3.469,-1.94l-0,-3.497c-0.688,-0.094 -1.375,-0.125 -2.032,-0.125c-2.124,-0.031 -3.842,0.343 -4.935,1.311c-0.968,0.874 -1.405,2.123 -1.405,3.907l-0,1.408l-2.501,-0l0,3.184Zm-270.314,13.439l5.341,-0l-0,-23.249l-5.341,0l0,23.249Zm321.602,-0l5.343,-0l1.438,-4.438l8.437,-0l1.469,4.438l5.624,-0l-8.406,-23.249l-5.531,0l-8.374,23.249Zm45.628,-2.778c-1.345,0 -2.439,-0.531 -2.439,-1.969c-0,-1.439 1.032,-1.97 3.19,-2.439c1.094,-0.25 2.157,-0.5 2.877,-0.938l-0,2.157c-0,1.814 -1.439,3.189 -3.628,3.189Zm30.379,0c-1.345,0 -2.44,-0.531 -2.44,-1.969c0,-1.439 1.032,-1.97 3.19,-2.439c1.095,-0.25 2.158,-0.5 2.877,-0.938l0,2.157c0,1.814 -1.438,3.189 -3.627,3.189Zm-106.294,-0.25c-2.502,0 -3.815,-2.126 -3.815,-5.252c-0,-3.158 1.313,-5.315 3.815,-5.315c2.439,-0 3.815,2.157 3.815,5.315c-0,3.126 -1.376,5.252 -3.815,5.252Zm-190.836,0c-2.501,0 -3.815,-2.126 -3.815,-5.252c0,-3.158 1.314,-5.315 3.815,-5.315c2.439,-0 3.815,2.157 3.815,5.315c0,3.126 -1.376,5.252 -3.815,5.252Zm230.591,-9.563c0.75,-2.284 1.563,-6.193 1.563,-6.193l0.062,0c0,0 0.5,3.002 1.5,6.191l1.406,4.346l-5.968,-0l1.437,-4.344Zm-280.159,-1.036c1.939,0 3.252,1.408 3.408,3.723l-7.098,0c0.312,-2.284 1.438,-3.723 3.69,-3.723Zm173.552,0c1.939,0 3.252,1.408 3.409,3.723l-7.099,0c0.313,-2.284 1.439,-3.723 3.69,-3.723Zm-100.46,-109.848c0.458,7.793 0.687,11.632 0.687,11.517c0,9.855 -3.953,16.846 -11.861,20.971c-11.001,5.73 -19.137,13.809 -24.409,24.238c-9.168,18.221 -27.331,27.331 -54.491,27.331c-20.398,0 -34.665,-7.105 -42.802,-21.315c-6.188,-10.887 -9.282,-27.675 -9.282,-50.366c-0,-14.668 5.959,-26.643 17.877,-35.926c11.001,-8.595 24.065,-12.892 39.192,-12.892c4.469,0 9.34,1.891 14.611,5.673c-7.334,-1.032 -14.611,-2.12 -21.83,-3.266c-12.721,-0 -23.436,4.927 -32.145,14.783c-9.168,10.428 -13.58,21.83 -13.236,34.207l0.172,5.672c4.24,-9.282 11.001,-16.673 20.284,-22.174c8.938,-5.386 18.622,-8.079 29.05,-8.079c4.126,-0 8.709,0.974 13.752,2.922c0.458,0.229 4.756,2.177 12.892,5.845c2.406,-10.429 10.428,-18.68 24.065,-24.754c11.345,-5.042 23.264,-7.563 35.755,-7.563c12.72,0 24.867,2.579 36.442,7.735l-0,2.579c-15.127,-0 -28.993,5.73 -41.599,17.189c-12.835,11.804 -19.253,25.212 -19.253,40.224c13.638,-2.521 22.347,-14.038 26.129,-34.551Zm-96.95,71.337c-7.563,-0 -14.84,-2.006 -21.83,-6.017c-6.991,-4.01 -12.492,-9.282 -16.502,-15.814c1.604,8.251 6.474,15.299 14.611,21.143c8.136,5.845 16.502,8.767 25.097,8.767c11.688,-0 21.716,-4.068 30.081,-12.205c6.303,-6.188 12.262,-15.585 17.877,-28.191l-3.609,-1.203c-2.178,10.199 -7.793,18.393 -16.846,24.581c-8.48,5.959 -18.106,8.939 -28.879,8.939Zm6.704,-76.322c-11.689,0 -21.945,3.724 -30.769,11.173c-9.168,7.793 -13.752,17.476 -13.752,29.051c0,8.021 4.355,15.184 13.064,21.487c7.908,5.729 16.044,8.594 24.41,8.594c7.907,0 16.444,-2.521 25.612,-7.563c10.428,-5.73 15.643,-12.147 15.643,-19.252c-0,-2.98 -1.519,-7.449 -4.556,-13.408c-3.036,-5.959 -4.555,-10.543 -4.555,-13.752c0,-2.063 0.401,-4.125 1.203,-6.188c-6.532,-6.761 -15.298,-10.142 -26.3,-10.142Zm33.52,7.392c0,2.062 1.748,7.763 5.243,17.103c3.495,9.34 5.701,14.124 6.618,14.353c12.606,-39.65 36.041,-59.476 70.305,-59.476c-2.75,0 -6.016,-0.458 -9.798,-1.375c-8.595,-2.062 -14.324,-3.094 -17.189,-3.094c-11.002,0 -22.347,2.751 -34.036,8.251c-14.095,6.647 -21.143,14.726 -21.143,24.238Zm0.11,17.95c0.021,0.033 0.041,0.066 0.062,0.099c1.833,2.865 2.865,4.755 3.094,5.672l-1.891,0.688c-0.321,-0.75 -0.743,-2.903 -1.265,-6.459c-1.334,-2.138 -2.001,-4.053 -2.001,-5.746l0,-1.203c0.688,0.687 1.318,2.75 1.891,6.188c0.037,0.26 0.074,0.514 0.11,0.761Zm117.533,-207.222c-65.93,48.432 -136.179,87.113 -204.428,110.138c-204.777,69.042 -314.089,-29.472 -243.935,-219.831c3.779,-10.321 8.035,-20.674 12.703,-31.091c-45.89,156.06 20.897,263.339 228.088,174.575c41.54,-17.784 84.54,-40.841 126.874,-67.962c2.477,12.925 12.767,23.247 26.169,25.406l54.529,8.765Zm100.991,-181.625l-8.638,53.703c-1.588,9.814 -6.193,18.865 -13.212,25.883c-7.018,7.019 -16.069,11.624 -25.883,13.212l-71.646,11.528c42.334,-31.631 82.921,-66.883 119.379,-104.326Zm20.484,68.566l0.222,-0.73l-1.937,5.875l1.715,-5.145Zm1.906,-8.003l-0.381,2.033l0.571,-3.081l-0.19,1.048Zm50.146,-107.724l42.969,6.892c0.857,0.158 1.683,0.349 2.509,0.571c-11.402,16.229 -23.597,32.33 -36.522,48.209l-8.956,-55.672Zm25.883,-76.188c17.657,-28.265 32.139,-56.911 42.651,-85.461c41.064,-111.376 14.037,-187.914 -60.436,-211.002c103.945,5.653 154.441,79.999 125.159,199.378c-4.319,-12.671 -16.292,-21.532 -30.075,-21.532c-15.593,0 -28.868,11.306 -31.345,26.709l-11.56,71.869c-0.699,4.351 -2.763,8.352 -5.875,11.433c-3.081,3.112 -7.082,5.176 -11.433,5.875l-17.086,2.731Z" style="fill:#ff637c;fill-rule:nonzero;"/></svg>